<svg viewBox="0 0 32 32" xml:space="preserve" xmlns="http://www.w3.org/2000/svg" enable-background="new 0 0 32 32"><path d="M25.961 13.322A7.961 7.961 0 0 0 28 8a8 8 0 0 0-16 0 8 8 0 0 0-8 8c0 2.046.775 3.907 2.039 5.322C2.381 23.076 0 26.378 0 30c0 1.078.844 2 2 2h20c1.156 0 2-.922 2-2 0-2.215-.898-4.306-2.427-6H30c1.156 0 2-.922 2-2 0-3.622-2.381-6.924-6.039-8.678zM20 4a4 4 0 0 1 0 8c-.422 0-.821-.083-1.203-.205a8.034 8.034 0 0 0-2.592-2.592A3.932 3.932 0 0 1 16 8a4 4 0 0 1 4-4zm-8 8a4 4 0 1 1 0 8 4 4 0 0 1 0-8zM4.494 28C5.569 25.835 8.32 24 12 24s6.431 1.835 7.506 4H4.494zm14.42-8A7.914 7.914 0 0 0 20 16c3.68 0 6.431 1.835 7.506 4h-8.592z" fill="#ffffff" class="fill-000000"></path></svg>